<?xml version="1.0" encoding="UTF-8" standalone="no"?>
<!-- Created with Inkscape (http://www.inkscape.org/) -->

<svg
   xmlns:dc="http://purl.org/dc/elements/1.1/"
   xmlns:cc="http://creativecommons.org/ns#"
   xmlns:rdf="http://www.w3.org/1999/02/22-rdf-syntax-ns#"
   xmlns:svg="http://www.w3.org/2000/svg"
   xmlns="http://www.w3.org/2000/svg"
   xmlns:sodipodi="http://sodipodi.sourceforge.net/DTD/sodipodi-0.dtd"
   xmlns:inkscape="http://www.inkscape.org/namespaces/inkscape"
   width="600"
   height="600"
   id="svg2"
   version="1.1"
   inkscape:version="0.48.4 r9939"
   sodipodi:docname="microbi.svg">
  <defs
     id="defs4" />
  <sodipodi:namedview
     id="base"
     pagecolor="#ffffff"
     bordercolor="#666666"
     borderopacity="1.0"
     inkscape:pageopacity="0.0"
     inkscape:pageshadow="2"
     inkscape:zoom="1"
     inkscape:cx="263.05213"
     inkscape:cy="400.55024"
     inkscape:document-units="px"
     inkscape:current-layer="layer2"
     showgrid="false"
     inkscape:snap-page="true"
     inkscape:snap-bbox="true"
     inkscape:bbox-nodes="true"
     inkscape:snap-global="false"
     inkscape:object-paths="false"
     inkscape:object-nodes="true"
     inkscape:window-width="1855"
     inkscape:window-height="1056"
     inkscape:window-x="65"
     inkscape:window-y="24"
     inkscape:window-maximized="1"
     fit-margin-top="0"
     fit-margin-left="0"
     fit-margin-right="0"
     fit-margin-bottom="0" />
  <metadata
     id="metadata7">
    <rdf:RDF>
      <cc:Work
         rdf:about="">
        <dc:format>image/svg+xml</dc:format>
        <dc:type
           rdf:resource="http://purl.org/dc/dcmitype/StillImage" />
        <dc:title />
      </cc:Work>
    </rdf:RDF>
  </metadata>
  <g
     inkscape:groupmode="layer"
     id="layer2"
     inkscape:label="bk"
     style="display:inline"
     sodipodi:insensitive="true"
     transform="translate(0,-400)">
    <rect
       style="color:#000000;fill:#08989b;fill-opacity:1;fill-rule:nonzero;stroke:none;stroke-width:1;marker:none;visibility:visible;display:inline;overflow:visible;enable-background:accumulate"
       id="rect2985"
       width="600"
       height="600"
       x="0"
       y="400" />
    <path
       style="color:#000000;fill:#09a1a3;fill-opacity:1;stroke:none;stroke-width:1px;marker:none;visibility:visible;display:inline;overflow:visible;enable-background:accumulate"
       d="M 0,862.24955 0,1000 l 600,0 0,-187.74876 z"
       id="path4132"
       inkscape:connector-curvature="0"
       sodipodi:nodetypes="ccccc" />
    <path
       style="color:#000000;fill:#34afb0;fill-opacity:1;stroke:none;stroke-width:1px;marker:none;visibility:visible;display:inline;overflow:visible;enable-background:accumulate"
       d="M 0,400 0,605.11539 600,429.61111 600,400 z"
       id="path4134"
       inkscape:connector-curvature="0"
       sodipodi:nodetypes="ccccc" />
    <path
       style="color:#000000;fill:#32a7a9;fill-opacity:1;stroke:none;stroke-width:1px;marker:none;visibility:visible;display:inline;overflow:visible;enable-background:accumulate"
       d="m 0,554.59675 0,179.91539 600,-279.90428 0,-29.61111 z"
       id="path4134-9"
       inkscape:connector-curvature="0"
       sodipodi:nodetypes="ccccc" />
    <path
       sodipodi:type="arc"
       style="color:#000000;fill:#52bfbf;fill-opacity:1;fill-rule:nonzero;stroke:none;stroke-width:1;marker:none;visibility:visible;display:inline;overflow:visible;enable-background:accumulate"
       id="path4156"
       sodipodi:cx="100.33675"
       sodipodi:cy="40.84874"
       sodipodi:rx="173.46353"
       sodipodi:ry="173.46353"
       d="m 273.80028,40.84874 c 0,95.80126 -77.66227,173.46353 -173.46353,173.46353 -95.8012669,0 -173.463535,-77.66227 -173.463535,-173.46353 0,-95.801263 77.6622681,-173.46353 173.463535,-173.46353 95.80126,0 173.46353,77.662267 173.46353,173.46353 z"
       transform="matrix(0.29625974,0,0,0.29625974,34.92938,455.84304)" />
    <path
       sodipodi:type="arc"
       style="color:#000000;fill:#43b6b6;fill-opacity:1;fill-rule:nonzero;stroke:none;stroke-width:1;marker:none;visibility:visible;display:inline;overflow:visible;enable-background:accumulate"
       id="path4156-4"
       sodipodi:cx="100.33675"
       sodipodi:cy="40.84874"
       sodipodi:rx="173.46353"
       sodipodi:ry="173.46353"
       d="m 273.80028,40.84874 c 0,95.80126 -77.66227,173.46353 -173.46353,173.46353 -95.8012669,0 -173.463535,-77.66227 -173.463535,-173.46353 0,-95.801263 77.6622681,-173.46353 173.463535,-173.46353 95.80126,0 173.46353,77.662267 173.46353,173.46353 z"
       transform="matrix(0.23235295,0,0,0.23235295,300.14491,447.13942)" />
    <path
       sodipodi:type="arc"
       style="color:#000000;fill:#41adad;fill-opacity:1;fill-rule:nonzero;stroke:none;stroke-width:1;marker:none;visibility:visible;display:inline;overflow:visible;enable-background:accumulate"
       id="path4156-4-1"
       sodipodi:cx="100.33675"
       sodipodi:cy="40.84874"
       sodipodi:rx="173.46353"
       sodipodi:ry="173.46353"
       d="m 273.80028,40.84874 c 0,95.80126 -77.66227,173.46353 -173.46353,173.46353 -95.8012669,0 -173.463535,-77.66227 -173.463535,-173.46353 0,-95.801263 77.6622681,-173.46353 173.463535,-173.46353 95.80126,0 173.46353,77.662267 173.46353,173.46353 z"
       transform="matrix(0.20000001,0,0,0.20000001,118.58123,564.82509)" />
    <path
       sodipodi:type="arc"
       style="color:#000000;fill:#3faaaa;fill-opacity:1;fill-rule:nonzero;stroke:none;stroke-width:1;marker:none;visibility:visible;display:inline;overflow:visible;enable-background:accumulate"
       id="path4156-4-1-4"
       sodipodi:cx="100.33675"
       sodipodi:cy="40.84874"
       sodipodi:rx="173.46353"
       sodipodi:ry="173.46353"
       d="m 273.80028,40.84874 c 0,95.80126 -77.66227,173.46353 -173.46353,173.46353 -95.8012669,0 -173.463535,-77.66227 -173.463535,-173.46353 0,-95.801263 77.6622681,-173.46353 173.463535,-173.46353 95.80126,0 173.46353,77.662267 173.46353,173.46353 z"
       transform="matrix(0.57058823,0,0,0.57058823,383.55047,575.68533)" />
    <path
       sodipodi:type="arc"
       style="color:#000000;fill:#3ea6a6;fill-opacity:1;fill-rule:nonzero;stroke:none;stroke-width:1;marker:none;visibility:visible;display:inline;overflow:visible;enable-background:accumulate"
       id="path4156-4-1-2"
       sodipodi:cx="100.33675"
       sodipodi:cy="40.84874"
       sodipodi:rx="173.46353"
       sodipodi:ry="173.46353"
       d="m 273.80028,40.84874 c 0,95.80126 -77.66227,173.46353 -173.46353,173.46353 -95.8012669,0 -173.463535,-77.66227 -173.463535,-173.46353 0,-95.801263 77.6622681,-173.46353 173.463535,-173.46353 95.80126,0 173.46353,77.662267 173.46353,173.46353 z"
       transform="matrix(0.36470588,0,0,0.36470588,44.016119,830.00542)" />
    <path
       sodipodi:type="arc"
       style="color:#000000;fill:#3ea6a6;fill-opacity:1;fill-rule:nonzero;stroke:none;stroke-width:1;marker:none;visibility:visible;display:inline;overflow:visible;enable-background:accumulate"
       id="path4156-4-1-2-5"
       sodipodi:cx="100.33675"
       sodipodi:cy="40.84874"
       sodipodi:rx="173.46353"
       sodipodi:ry="173.46353"
       d="m 273.80028,40.84874 c 0,95.80126 -77.66227,173.46353 -173.46353,173.46353 -95.8012669,0 -173.463535,-77.66227 -173.463535,-173.46353 0,-95.801263 77.6622681,-173.46353 173.463535,-173.46353 95.80126,0 173.46353,77.662267 173.46353,173.46353 z"
       transform="matrix(0.50294117,0,0,0.50294117,182.22162,762.77039)" />
    <path
       sodipodi:type="arc"
       style="color:#000000;fill:#42b1b1;fill-opacity:1;fill-rule:nonzero;stroke:none;stroke-width:1;marker:none;visibility:visible;display:inline;overflow:visible;enable-background:accumulate"
       id="path4156-4-1-2-5-0"
       sodipodi:cx="100.33675"
       sodipodi:cy="40.84874"
       sodipodi:rx="173.46353"
       sodipodi:ry="173.46353"
       d="m 273.80028,40.84874 c 0,95.80126 -77.66227,173.46353 -173.46353,173.46353 -95.8012669,0 -173.463535,-77.66227 -173.463535,-173.46353 0,-95.801263 77.6622681,-173.46353 173.463535,-173.46353 95.80126,0 173.46353,77.662267 173.46353,173.46353 z"
       transform="matrix(0.25000001,0,0,0.25000001,486.12302,676.53309)" />
    <path
       sodipodi:type="arc"
       style="color:#000000;fill:#40aeae;fill-opacity:1;fill-rule:nonzero;stroke:none;stroke-width:1;marker:none;visibility:visible;display:inline;overflow:visible;enable-background:accumulate"
       id="path4156-4-1-2-5-0-2"
       sodipodi:cx="100.33675"
       sodipodi:cy="40.84874"
       sodipodi:rx="173.46353"
       sodipodi:ry="173.46353"
       d="m 273.80028,40.84874 c 0,95.80126 -77.66227,173.46353 -173.46353,173.46353 -95.8012669,0 -173.463535,-77.66227 -173.463535,-173.46353 0,-95.801263 77.6622681,-173.46353 173.463535,-173.46353 95.80126,0 173.46353,77.662267 173.46353,173.46353 z"
       transform="matrix(0.3882353,0,0,0.3882353,478.88537,859.14531)" />
    <path
       sodipodi:type="arc"
       style="color:#000000;fill:#42b5b5;fill-opacity:1;fill-rule:nonzero;stroke:none;stroke-width:1;marker:none;visibility:visible;display:inline;overflow:visible;enable-background:accumulate"
       id="path4156-4-1-2-5-0-2-3"
       sodipodi:cx="100.33675"
       sodipodi:cy="40.84874"
       sodipodi:rx="173.46353"
       sodipodi:ry="173.46353"
       d="m 273.80028,40.84874 c 0,95.80126 -77.66227,173.46353 -173.46353,173.46353 -95.8012669,0 -173.463535,-77.66227 -173.463535,-173.46353 0,-3e-6 0,-6e-6 0,-8e-6 l 173.463535,8e-6 z"
       transform="matrix(0.3882353,0,0,0.3882353,447.76398,384.14108)"
       sodipodi:start="0"
       sodipodi:end="3.1415927" />
    <path
       sodipodi:type="arc"
       style="color:#000000;fill:#41b3b3;fill-opacity:1;fill-rule:nonzero;stroke:none;stroke-width:1;marker:none;visibility:visible;display:inline;overflow:visible;enable-background:accumulate"
       id="path4156-4-1-2-5-0-2-3-0"
       sodipodi:cx="100.33675"
       sodipodi:cy="40.84874"
       sodipodi:rx="173.46353"
       sodipodi:ry="173.46353"
       d="m 273.80028,40.84874 c 0,95.80126 -77.66227,173.46353 -173.46353,173.46353 -95.8012669,0 -173.463535,-77.66227 -173.463535,-173.46353 0,-95.801263 77.6622681,-173.46353 173.463535,-173.46353 95.80126,0 173.46353,77.662267 173.46353,173.46353 z"
       transform="matrix(0.24411766,0,0,0.24411766,415.79727,899.72503)" />
  </g>
  <g
     inkscape:label="Layer 1"
     inkscape:groupmode="layer"
     id="layer1"
     transform="translate(0,-452.36218)"
     style="display:inline">
    <path
       style="color:#000000;fill:#0cd2a4;fill-opacity:1;fill-rule:nonzero;stroke:none;stroke-width:1;marker:none;visibility:visible;display:inline;overflow:visible;enable-background:accumulate"
       d="m 442.35512,699.77153 c -15.42094,15.69594 -32.17981,22.31227 -49.16624,27.38424 l -10.59929,-19.03019 c 12.58798,-11.99791 28.97674,-21.12599 49.16624,-27.38424 11.53934,1.7684 12.41395,9.63093 10.59929,19.03019 z"
       id="rect3787-1-8"
       inkscape:connector-curvature="0"
       sodipodi:nodetypes="ccccc" />
    <path
       style="color:#000000;fill:#0bb28b;fill-opacity:1;stroke:none;stroke-width:1px;marker:none;visibility:visible;display:inline;overflow:visible;enable-background:accumulate"
       d="m 385.5485,729.94059 c 0,0 24.34596,-5.70021 29.19833,-9.86195 4.85237,-4.16175 21.36284,-12.36808 24.41556,-16.40782 3.05271,-4.03975 5.50026,-8.47237 4.06177,-11.5568 -1.43848,-3.08443 -4.46433,-5.04881 -4.46433,-5.04881 0,0 2.68054,6.47144 0.32328,10.10245 -2.35726,3.63102 -21.52757,15.27193 -27.68056,19.44953 -6.153,4.1776 -28.29058,10.45126 -28.29058,10.45126 z"
       id="path4082-2"
       inkscape:connector-curvature="0" />
    <path
       style="color:#000000;fill:#0cd2a4;fill-opacity:1;fill-rule:nonzero;stroke:none;stroke-width:1;marker:none;visibility:visible;display:inline;overflow:visible;enable-background:accumulate"
       d="m 175.72623,822.39888 c 15.42094,-15.69594 32.17981,-22.31227 49.16624,-27.38425 l 10.5993,19.0302 c -12.58799,11.9979 -28.97675,21.12598 -49.16625,27.38424 -8.54889,-2.52243 -13.55462,-7.87435 -10.59929,-19.03019 z"
       id="rect3787"
       inkscape:connector-curvature="0"
       sodipodi:nodetypes="ccccc" />
    <path
       style="color:#000000;fill:#0bb28b;fill-opacity:1;stroke:none;stroke-width:1px;marker:none;visibility:visible;display:inline;overflow:visible;enable-background:accumulate"
       d="m 240.73858,810.87958 c 0,0 -18.03782,17.31631 -24.17069,19.1201 -6.13286,1.80378 -22.00615,11.18345 -27.05674,11.5442 -5.05059,0.36076 -10.10118,0 -11.90496,-2.88605 -1.80379,-2.88605 -1.80379,-6.49362 -1.80379,-6.49362 0,0 3.96832,5.77211 8.2974,5.77211 4.32908,0 24.53145,-9.74043 31.38583,-12.62648 6.85437,-2.88605 24.17068,-18.03783 24.17068,-18.03783 z"
       id="path4082-27"
       inkscape:connector-curvature="0" />
    <path
       style="color:#000000;fill:#0cd2a4;fill-opacity:1;fill-rule:nonzero;stroke:none;stroke-width:1;marker:none;visibility:visible;display:inline;overflow:visible;enable-background:accumulate"
       d="m 173.56169,700.49304 c 15.42095,15.69594 32.17982,22.31228 49.16625,27.38425 l 10.59929,-19.03019 c -12.58799,-11.99791 -28.97675,-21.12599 -49.16624,-27.38424 -10.71031,2.77363 -13.33982,9.53004 -10.5993,19.03018 z"
       id="rect3787-3"
       inkscape:connector-curvature="0"
       sodipodi:nodetypes="ccccc" />
    <path
       style="color:#000000;fill:#0bb28b;fill-opacity:1;stroke:none;stroke-width:1px;marker:none;visibility:visible;display:inline;overflow:visible;enable-background:accumulate"
       d="m 228.23974,730.5779 c 0,0 -24.34819,-5.69063 -29.2022,-9.85047 -4.854,-4.15984 -21.3677,-12.35968 -24.422,-16.39823 -3.05431,-4.03854 -5.5036,-8.4702 -4.06631,-11.55519 1.43727,-3.085 4.46234,-5.05056 4.46234,-5.05056 0,0 -2.67799,6.47249 -0.31931,10.10258 2.35869,3.63009 21.53357,15.26346 27.68821,19.43865 6.15464,4.17517 28.29468,10.44013 28.29468,10.44013 z"
       id="path4082-23"
       inkscape:connector-curvature="0" />
    <path
       sodipodi:type="arc"
       style="color:#000000;fill:#0cd2a4;fill-opacity:1;fill-rule:nonzero;stroke:none;stroke-width:1;marker:none;visibility:visible;display:inline;overflow:visible;enable-background:accumulate"
       id="path3763"
       sodipodi:cx="-301.83301"
       sodipodi:cy="220.76579"
       sodipodi:rx="121.45471"
       sodipodi:ry="125.06228"
       d="m -180.3783,220.76579 c 0,69.06999 -54.37712,125.06228 -121.45471,125.06228 -67.07758,0 -121.45471,-55.99229 -121.45471,-125.06228 0,-69.06999 54.37713,-125.062276 121.45471,-125.062276 67.07759,0 121.45471,55.992286 121.45471,125.062276 z"
       transform="matrix(0.7565217,0,0,0.7565217,536.79424,592.60947)" />
    <path
       style="color:#000000;fill:#0cd2a4;fill-opacity:1;fill-rule:nonzero;stroke:none;stroke-width:1;marker:none;visibility:visible;display:inline;overflow:visible;enable-background:accumulate"
       d="m 442.35512,823.8419 c -15.42094,-15.69594 -32.17981,-22.31227 -49.16624,-27.38424 l -10.59929,19.03019 c 12.58798,11.99791 28.97674,21.12599 49.16624,27.38424 11.5715,-2.3242 14.41365,-9.01306 10.59929,-19.03019 z"
       id="rect3787-1"
       inkscape:connector-curvature="0"
       sodipodi:nodetypes="ccccc" />
    <path
       style="color:#000000;fill:#0cd2a4;fill-opacity:1;fill-rule:nonzero;stroke:none;stroke-width:1;marker:none;visibility:visible;display:inline;overflow:visible;enable-background:accumulate"
       d="m 296.15458,613.9551 c -5.88261,21.20289 -3.23309,39.02466 0.86767,56.27133 l 21.78027,-0.33583 c 4.0965,-16.90047 3.80727,-35.6576 -0.86767,-56.27134 -6.82295,-7.31949 -13.99693,-8.67143 -21.78027,0.33584 z"
       id="rect3787-3-1"
       inkscape:connector-curvature="0"
       sodipodi:nodetypes="ccccc" />
    <rect
       style="color:#000000;fill:#0bb28b;fill-opacity:1;fill-rule:nonzero;stroke:none;stroke-width:1;marker:none;visibility:visible;display:inline;overflow:visible;enable-background:accumulate"
       id="rect3944"
       width="12.087279"
       height="7.0450554"
       x="304.25818"
       y="853.80945" />
    <path
       style="color:#000000;fill:#0aa581;fill-opacity:1;fill-rule:nonzero;stroke:none;stroke-width:1;marker:none;visibility:visible;display:inline;overflow:visible;enable-background:accumulate"
       d="m 292.22298,825.47436 c 9.98095,2.83284 20.11001,4.8797 31.54433,0 l 0,4.77224 c -13.43143,5.15926 -22.4206,2.46062 -31.54433,0 z"
       id="rect4046"
       inkscape:connector-curvature="0"
       sodipodi:nodetypes="ccccc" />
    <path
       style="color:#000000;fill:#0bb28b;fill-opacity:1;stroke:none;stroke-width:1px;marker:none;visibility:visible;display:inline;overflow:visible;enable-background:accumulate"
       d="m 378.18684,811.83919 c 0,0 18.03782,17.31631 24.17069,19.1201 6.13286,1.80378 22.00615,11.18345 27.05674,11.54421 5.05059,0.36076 10.10119,0 11.90497,-2.88605 1.80378,-2.88606 1.80378,-6.49362 1.80378,-6.49362 0,0 -3.96832,5.7721 -8.2974,5.7721 -4.32908,0 -24.53145,-9.74043 -31.38582,-12.62647 -6.85438,-2.88606 -24.17069,-18.03783 -24.17069,-18.03783 z"
       id="path4082"
       inkscape:connector-curvature="0" />
    <path
       style="color:#000000;fill:#0bbf96;fill-opacity:1;stroke:none;stroke-width:1px;marker:none;visibility:visible;display:inline;overflow:visible;enable-background:accumulate"
       d="m 387.76565,711.51864 c 0,0 15.8921,26.47178 12.72272,57.18447 -3.16939,30.7127 -24.73338,64.33673 -46.8145,73.81717 -22.08113,9.48043 -29.90952,11.42696 -38.55799,12.08117 -8.64846,0.65422 26.76397,-15.34805 39.98315,-25.07038 14.00565,-10.30077 31.09231,-41.51344 33.57227,-60.8821 3.35618,-26.21195 -0.88958,-57.16658 -0.90565,-57.13033 z"
       id="path4080"
       inkscape:connector-curvature="0"
       sodipodi:nodetypes="csssssc" />
    <path
       style="color:#000000;fill:#0cd2a4;fill-opacity:1;fill-rule:nonzero;stroke:none;stroke-width:1;marker:none;visibility:visible;display:inline;overflow:visible;enable-background:accumulate"
       d="m 304.26205,860.68621 12.34161,0 38.70459,93.05554 c -28.78977,6.20308 -58.2561,8.68287 -89.75079,0 z"
       id="rect4127"
       inkscape:connector-curvature="0"
       sodipodi:nodetypes="ccccc" />
    <path
       style="color:#000000;fill:#0bb28b;fill-opacity:1;stroke:none;stroke-width:1px;marker:none;visibility:visible;display:inline;overflow:visible;enable-background:accumulate"
       d="m 316.60367,860.08455 38.90138,93.799 -14.37006,2.69441 z"
       id="path4130"
       inkscape:connector-curvature="0"
       sodipodi:nodetypes="cccc" />
    <path
       sodipodi:type="arc"
       style="color:#000000;fill:#099171;fill-opacity:1;fill-rule:nonzero;stroke:none;stroke-width:1;marker:none;visibility:visible;display:inline;overflow:visible;enable-background:accumulate"
       id="path4417-9"
       sodipodi:cx="1800.9596"
       sodipodi:cy="413.28513"
       sodipodi:rx="25.509342"
       sodipodi:ry="25.509342"
       d="m 1826.4689,413.28513 c 0,14.08842 -11.4209,25.50934 -25.5093,25.50934 -14.0884,0 -25.5093,-11.42092 -25.5093,-25.50934 0,-14.08842 11.4209,-25.50935 25.5093,-25.50935 14.0884,0 25.5093,11.42093 25.5093,25.50935 z"
       transform="matrix(0.35954756,0,0,0.35954756,-365.1884,629.39144)" />
    <path
       sodipodi:type="arc"
       style="color:#000000;fill:#099171;fill-opacity:1;fill-rule:nonzero;stroke:none;stroke-width:1;marker:none;visibility:visible;display:inline;overflow:visible;enable-background:accumulate"
       id="path4417-8-5"
       sodipodi:cx="1800.9596"
       sodipodi:cy="413.28513"
       sodipodi:rx="25.509342"
       sodipodi:ry="25.509342"
       d="m 1826.4689,413.28513 c 0,14.08842 -11.4209,25.50934 -25.5093,25.50934 -14.0884,0 -25.5093,-11.42092 -25.5093,-25.50934 0,-14.08842 11.4209,-25.50935 25.5093,-25.50935 14.0884,0 25.5093,11.42093 25.5093,25.50935 z"
       transform="matrix(0.35954756,0,0,0.35954756,-316.24484,629.2961)" />
  </g>
</svg>
