<?xml version="1.0" encoding="UTF-8" standalone="no"?>
<!-- Created with Inkscape (http://www.inkscape.org/) -->

<svg
   xmlns:dc="http://purl.org/dc/elements/1.1/"
   xmlns:cc="http://creativecommons.org/ns#"
   xmlns:rdf="http://www.w3.org/1999/02/22-rdf-syntax-ns#"
   xmlns:svg="http://www.w3.org/2000/svg"
   xmlns="http://www.w3.org/2000/svg"
   xmlns:sodipodi="http://sodipodi.sourceforge.net/DTD/sodipodi-0.dtd"
   xmlns:inkscape="http://www.inkscape.org/namespaces/inkscape"
   width="500"
   height="500"
   id="svg2"
   version="1.1"
   inkscape:version="0.48.4 r9939"
   sodipodi:docname="microbi2.svg">
  <defs
     id="defs4" />
  <sodipodi:namedview
     id="base"
     pagecolor="#ffffff"
     bordercolor="#666666"
     borderopacity="1.0"
     inkscape:pageopacity="0.0"
     inkscape:pageshadow="2"
     inkscape:zoom="0.70710678"
     inkscape:cx="-212.83613"
     inkscape:cy="222.30512"
     inkscape:document-units="px"
     inkscape:current-layer="layer1"
     showgrid="false"
     inkscape:snap-page="true"
     inkscape:snap-bbox="true"
     inkscape:bbox-nodes="true"
     inkscape:snap-global="false"
     inkscape:object-paths="false"
     inkscape:object-nodes="true"
     inkscape:window-width="1855"
     inkscape:window-height="1056"
     inkscape:window-x="65"
     inkscape:window-y="24"
     inkscape:window-maximized="1"
     fit-margin-top="0"
     fit-margin-left="0"
     fit-margin-right="0"
     fit-margin-bottom="0" />
  <metadata
     id="metadata7">
    <rdf:RDF>
      <cc:Work
         rdf:about="">
        <dc:format>image/svg+xml</dc:format>
        <dc:type
           rdf:resource="http://purl.org/dc/dcmitype/StillImage" />
        <dc:title></dc:title>
      </cc:Work>
    </rdf:RDF>
  </metadata>
  <g
     inkscape:groupmode="layer"
     id="layer2"
     inkscape:label="bk"
     style="display:inline"
     transform="translate(0,-500)" />
  <g
     inkscape:label="Layer 1"
     inkscape:groupmode="layer"
     id="layer1"
     transform="translate(0,-552.36218)"
     style="display:inline">
    <rect
       style="color:#000000;fill:#08989b;fill-opacity:1;fill-rule:nonzero;stroke:none;stroke-width:1;marker:none;visibility:visible;display:inline;overflow:visible;enable-background:accumulate"
       id="rect2985-6"
       width="500"
       height="500"
       x="1.8828125e-05"
       y="552.36218" />
    <path
       style="color:#000000;fill:#09a1a3;fill-opacity:1;stroke:none;stroke-width:1px;marker:none;visibility:visible;display:inline;overflow:visible;enable-background:accumulate"
       d="m -1e-5,882.57715 0,169.78505 500.00001,0 0,-231.41062 z"
       id="path4132-2"
       inkscape:connector-curvature="0"
       sodipodi:nodetypes="ccccc" />
    <path
       style="color:#000000;fill:#34afb0;fill-opacity:1;stroke:none;stroke-width:1px;marker:none;visibility:visible;display:inline;overflow:visible;enable-background:accumulate"
       d="m -1e-5,552.36217 0,170.92949 L 500,577.0381 l 0,-24.67593 z"
       id="path4134-0"
       inkscape:connector-curvature="0"
       sodipodi:nodetypes="ccccc" />
    <path
       style="color:#000000;fill:#32a7a9;fill-opacity:1;stroke:none;stroke-width:1px;marker:none;visibility:visible;display:inline;overflow:visible;enable-background:accumulate"
       d="m -1e-5,681.1928 0,149.9295 L 500,597.86872 500,573.1928 z"
       id="path4134-9-1"
       inkscape:connector-curvature="0"
       sodipodi:nodetypes="ccccc" />
    <path
       sodipodi:type="arc"
       style="color:#000000;fill:#52bfbf;fill-opacity:1;fill-rule:nonzero;stroke:none;stroke-width:1;marker:none;visibility:visible;display:inline;overflow:visible;enable-background:accumulate"
       id="path4156-6"
       sodipodi:cx="100.33675"
       sodipodi:cy="40.84874"
       sodipodi:rx="173.46353"
       sodipodi:ry="173.46353"
       d="m 273.80028,40.84874 a 173.46353,173.46353 0 1 1 -346.927065,0 173.46353,173.46353 0 1 1 346.927065,0 z"
       transform="matrix(0.24688312,0,0,0.24688312,427.91604,809.61586)" />
    <path
       sodipodi:type="arc"
       style="color:#000000;fill:#43b6b6;fill-opacity:1;fill-rule:nonzero;stroke:none;stroke-width:1;marker:none;visibility:visible;display:inline;overflow:visible;enable-background:accumulate"
       id="path4156-4-0"
       sodipodi:cx="100.33675"
       sodipodi:cy="40.84874"
       sodipodi:rx="173.46353"
       sodipodi:ry="173.46353"
       d="m 273.80028,40.84874 a 173.46353,173.46353 0 1 1 -346.927065,0 173.46353,173.46353 0 1 1 346.927065,0 z"
       transform="matrix(0.19362746,0,0,0.19362746,30.580328,654.00144)" />
    <path
       sodipodi:type="arc"
       style="color:#000000;fill:#41adad;fill-opacity:1;fill-rule:nonzero;stroke:none;stroke-width:1;marker:none;visibility:visible;display:inline;overflow:visible;enable-background:accumulate"
       id="path4156-4-1-0"
       sodipodi:cx="100.33675"
       sodipodi:cy="40.84874"
       sodipodi:rx="173.46353"
       sodipodi:ry="173.46353"
       d="m 273.80028,40.84874 a 173.46353,173.46353 0 1 1 -346.927065,0 173.46353,173.46353 0 1 1 346.927065,0 z"
       transform="matrix(0.16666667,0,0,0.16666667,127.10195,582.23618)" />
    <path
       sodipodi:type="arc"
       style="color:#000000;fill:#3faaaa;fill-opacity:1;fill-rule:nonzero;stroke:none;stroke-width:1;marker:none;visibility:visible;display:inline;overflow:visible;enable-background:accumulate"
       id="path4156-4-1-4-8"
       sodipodi:cx="100.33675"
       sodipodi:cy="40.84874"
       sodipodi:rx="173.46353"
       sodipodi:ry="173.46353"
       d="m 273.80028,40.84874 a 173.46353,173.46353 0 1 1 -346.927065,0 173.46353,173.46353 0 1 1 346.927065,0 z"
       transform="matrix(0.47549019,0,0,0.47549019,319.62538,698.76661)" />
    <path
       sodipodi:type="arc"
       style="color:#000000;fill:#3ea6a6;fill-opacity:1;fill-rule:nonzero;stroke:none;stroke-width:1;marker:none;visibility:visible;display:inline;overflow:visible;enable-background:accumulate"
       id="path4156-4-1-2-5-3"
       sodipodi:cx="100.33675"
       sodipodi:cy="40.84874"
       sodipodi:rx="173.46353"
       sodipodi:ry="173.46353"
       d="m 273.80028,40.84874 a 173.46353,173.46353 0 1 1 -346.927065,0 173.46353,173.46353 0 1 1 346.927065,0 z"
       transform="matrix(0.41911764,0,0,0.41911764,41.54268,812.24439)" />
    <path
       sodipodi:type="arc"
       style="color:#000000;fill:#40aeae;fill-opacity:1;fill-rule:nonzero;stroke:none;stroke-width:1;marker:none;visibility:visible;display:inline;overflow:visible;enable-background:accumulate"
       id="path4156-4-1-2-4"
       sodipodi:cx="100.33675"
       sodipodi:cy="40.84874"
       sodipodi:rx="173.46353"
       sodipodi:ry="173.46353"
       d="m 273.80028,40.84874 a 173.46353,173.46353 0 1 1 -346.927065,0 173.46353,173.46353 0 1 1 346.927065,0 z"
       transform="matrix(0.30392157,0,0,0.30392157,67.792789,897.97208)" />
    <path
       sodipodi:type="arc"
       style="color:#000000;fill:#40aeae;fill-opacity:1;fill-rule:nonzero;stroke:none;stroke-width:1;marker:none;visibility:visible;display:inline;overflow:visible;enable-background:accumulate"
       id="path4156-4-1-2-5-0-2-8"
       sodipodi:cx="100.33675"
       sodipodi:cy="40.84874"
       sodipodi:rx="173.46353"
       sodipodi:ry="173.46353"
       d="m 273.80028,40.84874 a 173.46353,173.46353 0 1 1 -346.927065,0 173.46353,173.46353 0 1 1 346.927065,0 z"
       transform="matrix(0.32352942,0,0,0.32352942,399.07114,912.35588)" />
    <path
       sodipodi:type="arc"
       style="color:#000000;fill:#42b5b5;fill-opacity:1;fill-rule:nonzero;stroke:none;stroke-width:1;marker:none;visibility:visible;display:inline;overflow:visible;enable-background:accumulate"
       id="path4156-4-1-2-5-0-2-3-5"
       sodipodi:cx="100.33675"
       sodipodi:cy="40.84874"
       sodipodi:rx="173.46353"
       sodipodi:ry="173.46353"
       d="m 273.80028,40.84874 a 173.46353,173.46353 0 1 1 -346.927065,-8e-6 l 173.463535,8e-6 z"
       transform="matrix(0.32352942,0,0,0.32352942,23.658685,539.14642)"
       sodipodi:start="0"
       sodipodi:end="3.1415927" />
    <path
       sodipodi:type="arc"
       style="color:#000000;fill:#41b3b3;fill-opacity:1;fill-rule:nonzero;stroke:none;stroke-width:1;marker:none;visibility:visible;display:inline;overflow:visible;enable-background:accumulate"
       id="path4156-4-1-2-5-0-2-3-0-7"
       sodipodi:cx="100.33675"
       sodipodi:cy="40.84874"
       sodipodi:rx="173.46353"
       sodipodi:ry="173.46353"
       d="m 273.80028,40.84874 a 173.46353,173.46353 0 1 1 -346.927065,0 173.46353,173.46353 0 1 1 346.927065,0 z"
       transform="matrix(0.20343138,0,0,0.20343138,346.49771,968.7997)" />
    <path
       sodipodi:type="arc"
       style="color:#000000;fill:#0cb4d2;fill-opacity:1;fill-rule:nonzero;stroke:none;stroke-width:1;marker:none;visibility:visible;display:inline;overflow:visible;enable-background:accumulate"
       id="path4211-9"
       sodipodi:cx="169.58748"
       sodipodi:cy="90.3134"
       sodipodi:rx="33.732658"
       sodipodi:ry="33.732658"
       d="m 203.32014,90.3134 a 33.732658,33.732658 0 1 1 -67.46532,0 33.732658,33.732658 0 1 1 67.46532,0 z"
       transform="matrix(0.83333333,0,0,0.83333333,-57.091775,533.22158)" />
    <path
       sodipodi:type="arc"
       style="color:#000000;fill:#42b1b1;fill-opacity:1;fill-rule:nonzero;stroke:none;stroke-width:1;marker:none;visibility:visible;display:inline;overflow:visible;enable-background:accumulate"
       id="path4156-4-1-2-5-0-29"
       sodipodi:cx="100.33675"
       sodipodi:cy="40.84874"
       sodipodi:rx="173.46353"
       sodipodi:ry="173.46353"
       d="m 273.80028,40.84874 a 173.46353,173.46353 0 1 1 -346.927065,0 173.46353,173.46353 0 1 1 346.927065,0 z"
       transform="matrix(0.20833334,0,0,0.20833334,402.2741,632.89978)" />
    <path
       sodipodi:type="arc"
       style="color:#000000;fill:#0bb4c0;fill-opacity:1;fill-rule:nonzero;stroke:none;stroke-width:1;marker:none;visibility:visible;display:inline;overflow:visible;enable-background:accumulate"
       id="path4211-8-6"
       sodipodi:cx="169.58748"
       sodipodi:cy="90.3134"
       sodipodi:rx="33.732658"
       sodipodi:ry="33.732658"
       d="m 203.32014,90.3134 a 33.732658,33.732658 0 1 1 -67.46532,0 33.732658,33.732658 0 1 1 67.46532,0 z"
       transform="matrix(1.4840182,0,0,1.4840182,125.40654,472.90139)" />
    <path
       sodipodi:type="arc"
       style="color:#000000;fill:#0ba4c0;fill-opacity:1;fill-rule:nonzero;stroke:none;stroke-width:1;marker:none;visibility:visible;display:inline;overflow:visible;enable-background:accumulate"
       id="path4211-8-3-5"
       sodipodi:cx="169.58748"
       sodipodi:cy="90.3134"
       sodipodi:rx="33.732658"
       sodipodi:ry="33.732658"
       d="m 203.32014,90.3134 a 33.732658,33.732658 0 1 1 -67.46532,0 33.732658,33.732658 0 1 1 67.46532,0 z"
       transform="matrix(0.71917808,0,0,0.71917808,316.89013,704.79899)" />
    <path
       sodipodi:type="arc"
       style="color:#000000;fill:#0490a8;fill-opacity:1;fill-rule:nonzero;stroke:none;stroke-width:1;marker:none;visibility:visible;display:inline;overflow:visible;enable-background:accumulate"
       id="path4211-8-3-7-4"
       sodipodi:cx="169.58748"
       sodipodi:cy="90.3134"
       sodipodi:rx="33.732658"
       sodipodi:ry="33.732658"
       d="m 203.32014,90.3134 a 33.732658,33.732658 0 1 1 -67.46532,0 33.732658,33.732658 0 1 1 67.46532,0 z"
       transform="matrix(0.41095891,0,0,0.41095891,36.97256,928.605)" />
    <path
       sodipodi:type="arc"
       style="color:#000000;fill:#049da8;fill-opacity:1;fill-rule:nonzero;stroke:none;stroke-width:1;marker:none;visibility:visible;display:inline;overflow:visible;enable-background:accumulate"
       id="path4211-8-3-7-7-4"
       sodipodi:cx="169.58748"
       sodipodi:cy="90.3134"
       sodipodi:rx="33.732658"
       sodipodi:ry="33.732658"
       d="m 203.32014,90.3134 a 33.732658,33.732658 0 1 1 -67.46532,0 33.732658,33.732658 0 1 1 67.46532,0 z"
       transform="matrix(1.0502283,0,0,1.0502283,225.9244,774.42089)" />
    <path
       sodipodi:type="arc"
       style="color:#000000;fill:#0490a8;fill-opacity:1;fill-rule:nonzero;stroke:none;stroke-width:1;marker:none;visibility:visible;display:inline;overflow:visible;enable-background:accumulate"
       id="path4211-8-3-7-9-1"
       sodipodi:cx="169.58748"
       sodipodi:cy="90.3134"
       sodipodi:rx="33.732658"
       sodipodi:ry="33.732658"
       d="m 203.32014,90.3134 a 33.732658,33.732658 0 1 1 -67.46532,0 33.732658,33.732658 0 1 1 67.46532,0 z"
       transform="matrix(0.51369863,0,0,0.51369863,94.219499,551.38128)" />
    <path
       sodipodi:type="arc"
       style="color:#000000;fill:#0490a8;fill-opacity:1;fill-rule:nonzero;stroke:none;stroke-width:1;marker:none;visibility:visible;display:inline;overflow:visible;enable-background:accumulate"
       id="path4211-8-3-7-9-3-6"
       sodipodi:cx="169.58748"
       sodipodi:cy="90.3134"
       sodipodi:rx="33.732658"
       sodipodi:ry="33.732658"
       d="m 203.32014,90.3134 a 33.732658,33.732658 0 1 1 -67.46532,0 33.732658,33.732658 0 1 1 67.46532,0 z"
       transform="matrix(0.4298503,0,0,0.4298503,394.61225,594.71793)" />
    <g
       id="g3180"
       transform="translate(517.99348,48.399059)">
      <rect
         rx="28.284271"
         ry="28.284271"
         y="881.24231"
         x="-431.33514"
         height="93.338097"
         width="326.68332"
         id="rect3963"
         style="color:#000000;fill:#52bfbf;fill-opacity:1;fill-rule:nonzero;stroke:none;stroke-width:1;marker:none;visibility:visible;display:inline;overflow:visible;enable-background:accumulate" />
      <text
         sodipodi:linespacing="125%"
         id="text3149-3-3"
         y="950.67786"
         x="-398.4325"
         style="font-size:65.02898407px;font-style:normal;font-variant:normal;font-weight:bold;font-stretch:normal;line-height:125%;letter-spacing:0px;word-spacing:0px;fill:#e8d950;fill-opacity:1;stroke:none;display:inline;font-family:Days One;-inkscape-font-specification:Days One Bold"
         xml:space="preserve"><tspan
           y="950.67786"
           x="-398.4325"
           id="tspan3151-2-7"
           sodipodi:role="line">microbi</tspan></text>
    </g>
    <path
       style="color:#000000;fill:#0cd2a4;fill-opacity:1;fill-rule:nonzero;stroke:none;stroke-width:1;marker:none;visibility:visible;display:inline;overflow:visible;enable-background:accumulate"
       d="m 320.02383,734.45389 c 1.65573,49.07135 -15.41056,71.2726 -77.27074,71.12742 -58.77562,-0.13794 -75.41162,-20.80429 -75.8678,-71.12742 -0.42874,-47.29587 17.63948,-72.13971 77.27074,-72.53037 54.02793,-0.35394 74.31318,26.45566 75.8678,72.53037 z"
       id="path3763-7"
       inkscape:connector-curvature="0"
       sodipodi:nodetypes="sssss" />
    <rect
       style="color:#000000;fill:#0bb28b;fill-opacity:1;fill-rule:nonzero;stroke:none;stroke-width:1;marker:none;visibility:visible;display:inline;overflow:visible;enable-background:accumulate"
       id="rect3944-2"
       width="10.072733"
       height="5.8708797"
       x="239.25908"
       y="805.22595" />
    <path
       sodipodi:type="arc"
       style="color:#000000;fill:#099171;fill-opacity:1;fill-rule:nonzero;stroke:none;stroke-width:1;marker:none;visibility:visible;display:inline;overflow:visible;enable-background:accumulate"
       id="path4417-8-5-5"
       sodipodi:cx="1800.9596"
       sodipodi:cy="413.28513"
       sodipodi:rx="25.509342"
       sodipodi:ry="25.509342"
       d="m 1826.4689,413.28513 a 25.509342,25.509342 0 1 1 -51.0186,0 25.509342,25.509342 0 1 1 51.0186,0 z"
       transform="matrix(0.29962297,0,0,0.29962297,-261.67476,610.40621)" />
    <path
       style="color:#000000;fill:#0aa581;fill-opacity:1;fill-rule:nonzero;stroke:none;stroke-width:1;marker:none;visibility:visible;display:inline;overflow:visible;enable-background:accumulate"
       d="m 228.47842,770.34185 c 16.02642,3.64498 24.33789,1.2918 34.01453,0 3.27745,-0.43752 6.00256,2.0814 6.00256,4.66683 l 0,6.22243 c 0,2.58543 -2.82852,3.89567 -6.00256,4.66683 -10.67123,2.59268 -22.0094,2.59268 -34.01453,0 -3.20409,-0.69197 -6.00255,-2.0814 -6.00255,-4.66683 l 0,-6.22243 c 0,-2.58543 2.8109,-5.39273 6.00255,-4.66683 z"
       id="rect3015-9"
       inkscape:connector-curvature="0"
       sodipodi:nodetypes="sssssssss" />
    <path
       style="color:#000000;fill:#0cd2a4;fill-opacity:1;fill-rule:nonzero;stroke:none;stroke-width:1;marker:none;visibility:visible;display:inline;overflow:visible;enable-background:accumulate"
       d="m 231.92695,812.54176 c 7.20992,-3.12936 18.78343,-1.59411 23.57772,-0.27229 4.7943,1.32183 11.92501,5.31855 11.92501,11.92501 l 0,57.52063 c 0,6.60645 -7.42992,16.76644 -11.92501,11.92501 -7.95,-8.56256 -15.9,-4.20238 -23.85001,0 -5.84067,3.08738 -11.92501,-5.31856 -11.92501,-11.92501 l 0,-57.52063 c 0,-6.21889 7.67095,-9.68813 12.1973,-11.65272 z"
       id="rect3018-7"
       inkscape:connector-curvature="0"
       sodipodi:nodetypes="szsssssss" />
    <path
       sodipodi:type="arc"
       style="color:#000000;fill:#0cd2a4;fill-opacity:1;fill-rule:nonzero;stroke:none;stroke-width:1;marker:none;visibility:visible;display:inline;overflow:visible;enable-background:accumulate"
       id="path3021-21"
       sodipodi:cx="405.71606"
       sodipodi:cy="394.36942"
       sodipodi:rx="20.332012"
       sodipodi:ry="20.332012"
       d="m 426.04808,394.36942 a 20.332012,20.332012 0 1 1 -40.66403,0 20.332012,20.332012 0 1 1 40.66403,0 z"
       transform="matrix(0.83333333,0,0,0.83333333,-23.59993,466.85044)" />
    <path
       style="color:#000000;fill:#0cbf95;fill-opacity:1;stroke:none;stroke-width:1px;marker:none;visibility:visible;display:inline;overflow:visible;enable-background:accumulate"
       d="m 298.72851,802.60185 c 8.16619,5.12518 18.30353,8.54197 23.65379,4.55571 5.35027,-3.98626 9.29255,-14.23663 8.16618,-17.93816 -1.12636,-3.70151 1.40797,0.8542 1.12637,7.11832 -0.28158,6.26413 -3.09751,14.8061 -12.10848,15.94503 -9.01096,1.13893 -16.89556,1.42366 -20.83786,-9.6809 z"
       id="path3023-02"
       inkscape:connector-curvature="0" />
    <path
       sodipodi:type="arc"
       style="color:#000000;fill:#0cd2a4;fill-opacity:1;fill-rule:nonzero;stroke:none;stroke-width:1;marker:none;visibility:visible;display:inline;overflow:visible;enable-background:accumulate"
       id="path3021-1-8"
       sodipodi:cx="405.71606"
       sodipodi:cy="394.36942"
       sodipodi:rx="20.332012"
       sodipodi:ry="20.332012"
       d="m 426.04808,394.36942 a 20.332012,20.332012 0 1 1 -40.66403,0 20.332012,20.332012 0 1 1 40.66403,0 z"
       transform="matrix(0.83333333,0,0,0.83333333,-171.28486,462.23721)" />
    <path
       style="color:#000000;fill:#0cbf95;fill-opacity:1;stroke:none;stroke-width:1px;marker:none;visibility:visible;display:inline;overflow:visible;enable-background:accumulate"
       d="m 151.04357,797.98862 c 8.1662,5.12518 18.30354,8.54198 23.6538,4.55572 5.35026,-3.98626 9.29255,-14.23664 8.16618,-17.93816 -1.12637,-3.70152 1.40797,0.8542 1.12637,7.11832 -0.28159,6.26412 -3.09751,14.8061 -12.10848,15.94502 -9.01097,1.13893 -16.89557,1.42367 -20.83787,-9.6809 z"
       id="path3023-0-3"
       inkscape:connector-curvature="0" />
    <path
       sodipodi:type="arc"
       style="color:#000000;fill:#0cd2a4;fill-opacity:1;fill-rule:nonzero;stroke:none;stroke-width:1;marker:none;visibility:visible;display:inline;overflow:visible;enable-background:accumulate"
       id="path3021-6-5-5"
       sodipodi:cx="405.71606"
       sodipodi:cy="394.36942"
       sodipodi:rx="20.332012"
       sodipodi:ry="20.332012"
       d="m 426.04808,394.36942 a 20.332012,20.332012 0 1 1 -40.66403,0 20.332012,20.332012 0 1 1 40.66403,0 z"
       transform="matrix(0.48775483,0,0,0.48775483,-45.72853,614.39395)" />
    <path
       style="color:#000000;fill:#0cbf95;fill-opacity:1;stroke:none;stroke-width:1px;marker:none;visibility:visible;display:inline;overflow:visible;enable-background:accumulate"
       d="m 142.93217,810.9112 c 4.77972,2.9998 10.71317,4.99967 13.8447,2.66649 3.13155,-2.33318 5.43899,-8.33279 4.77972,-10.49931 -0.65927,-2.16652 0.82409,0.49997 0.65927,4.16639 -0.16481,3.66643 -1.81299,8.6661 -7.08716,9.33272 -5.27418,0.66662 -9.88908,0.83328 -12.19653,-5.66629 z"
       id="path3023-7-38-3"
       inkscape:connector-curvature="0" />
    <path
       sodipodi:type="arc"
       style="color:#000000;fill:#0cd2a4;fill-opacity:1;fill-rule:nonzero;stroke:none;stroke-width:1;marker:none;visibility:visible;display:inline;overflow:visible;enable-background:accumulate"
       id="path3021-2-5"
       sodipodi:cx="405.71606"
       sodipodi:cy="394.36942"
       sodipodi:rx="20.332012"
       sodipodi:ry="20.332012"
       d="m 426.04808,394.36942 a 20.332012,20.332012 0 1 1 -40.66403,0 20.332012,20.332012 0 1 1 40.66403,0 z"
       transform="matrix(0.83333333,0,0,0.83333333,-5.73263,393.89246)" />
    <path
       sodipodi:type="arc"
       style="color:#000000;fill:#0cd2a4;fill-opacity:1;fill-rule:nonzero;stroke:none;stroke-width:1;marker:none;visibility:visible;display:inline;overflow:visible;enable-background:accumulate"
       id="path3021-2-2-5"
       sodipodi:cx="405.71606"
       sodipodi:cy="394.36942"
       sodipodi:rx="20.332012"
       sodipodi:ry="20.332012"
       d="m 426.04808,394.36942 a 20.332012,20.332012 0 1 1 -40.66403,0 20.332012,20.332012 0 1 1 40.66403,0 z"
       transform="matrix(0.83333333,0,0,0.83333333,-184.62706,382.45629)" />
    <path
       style="color:#000000;fill:#0cbf95;fill-opacity:1;stroke:none;stroke-width:1px;marker:none;visibility:visible;display:inline;overflow:visible;enable-background:accumulate"
       d="m 137.70137,718.2077 c 8.1662,5.12518 18.30354,8.54197 23.6538,4.55571 5.35026,-3.98626 9.29255,-14.23663 8.16618,-17.93816 -1.12637,-3.70151 1.40797,0.8542 1.12637,7.11832 -0.28159,6.26413 -3.09751,14.8061 -12.10848,15.94503 -9.01097,1.13893 -16.89557,1.42366 -20.83787,-9.6809 z"
       id="path3023-6-5-5"
       inkscape:connector-curvature="0" />
    <path
       sodipodi:type="arc"
       style="color:#000000;fill:#0cd2a4;fill-opacity:1;fill-rule:nonzero;stroke:none;stroke-width:1;marker:none;visibility:visible;display:inline;overflow:visible;enable-background:accumulate"
       id="path3021-6-4-2-5"
       sodipodi:cx="405.71606"
       sodipodi:cy="394.36942"
       sodipodi:rx="20.332012"
       sodipodi:ry="20.332012"
       d="m 426.04808,394.36942 a 20.332012,20.332012 0 1 1 -40.66403,0 20.332012,20.332012 0 1 1 40.66403,0 z"
       transform="matrix(0.48775483,0,0,0.48775483,-64.51653,518.00335)" />
    <path
       style="color:#000000;fill:#0cbf95;fill-opacity:1;stroke:none;stroke-width:1px;marker:none;visibility:visible;display:inline;overflow:visible;enable-background:accumulate"
       d="m 124.14417,714.5206 c 4.77972,2.9998 10.71317,4.99966 13.8447,2.66648 3.13155,-2.33318 5.43899,-8.33278 4.77972,-10.49931 -0.65927,-2.16652 0.82409,0.49997 0.65927,4.16639 -0.16481,3.66644 -1.81299,8.6661 -7.08716,9.33272 -5.27418,0.66662 -9.88908,0.83328 -12.19653,-5.66628 z"
       id="path3023-7-6-1-7"
       inkscape:connector-curvature="0" />
    <path
       sodipodi:type="arc"
       style="color:#000000;fill:#0cd2a4;fill-opacity:1;fill-rule:nonzero;stroke:none;stroke-width:1;marker:none;visibility:visible;display:inline;overflow:visible;enable-background:accumulate"
       id="path3021-24-5"
       sodipodi:cx="405.71606"
       sodipodi:cy="394.36942"
       sodipodi:rx="20.332012"
       sodipodi:ry="20.332012"
       d="m 426.04808,394.36942 a 20.332012,20.332012 0 1 1 -40.66403,0 20.332012,20.332012 0 1 1 40.66403,0 z"
       transform="matrix(0.83333333,0,0,0.83333333,-47.39298,331.2658)" />
    <path
       style="color:#000000;fill:#0cbf95;fill-opacity:1;stroke:none;stroke-width:1px;marker:none;visibility:visible;display:inline;overflow:visible;enable-background:accumulate"
       d="m 274.93546,667.0172 c 8.16619,5.12519 18.30353,8.54198 23.65379,4.55572 5.35027,-3.98626 9.29255,-14.23663 8.16618,-17.93816 -1.12636,-3.70151 1.40797,0.8542 1.12637,7.11832 -0.28158,6.26412 -3.09751,14.8061 -12.10848,15.94502 -9.01096,1.13894 -16.89556,1.42367 -20.83786,-9.6809 z"
       id="path3023-8-5"
       inkscape:connector-curvature="0" />
    <path
       sodipodi:type="arc"
       style="color:#000000;fill:#0cd2a4;fill-opacity:1;fill-rule:nonzero;stroke:none;stroke-width:1;marker:none;visibility:visible;display:inline;overflow:visible;enable-background:accumulate"
       id="path3021-6-4-0-5"
       sodipodi:cx="405.71606"
       sodipodi:cy="394.36942"
       sodipodi:rx="20.332012"
       sodipodi:ry="20.332012"
       d="m 426.04808,394.36942 a 20.332012,20.332012 0 1 1 -40.66403,0 20.332012,20.332012 0 1 1 40.66403,0 z"
       transform="matrix(0.48775483,0,0,0.48775483,110.02127,452.92607)" />
    <path
       style="color:#000000;fill:#0cbf95;fill-opacity:1;stroke:none;stroke-width:1px;marker:none;visibility:visible;display:inline;overflow:visible;enable-background:accumulate"
       d="m 298.68197,649.44332 c 4.77971,2.9998 10.71316,4.99967 13.8447,2.66648 3.13154,-2.33317 5.43898,-8.33278 4.77971,-10.4993 -0.65926,-2.16652 0.82409,0.49996 0.65927,4.16639 -0.16481,3.66643 -1.81298,8.6661 -7.08716,9.33271 -5.27417,0.66663 -9.88907,0.83329 -12.19652,-5.66628 z"
       id="path3023-7-6-2-8"
       inkscape:connector-curvature="0" />
    <path
       sodipodi:type="arc"
       style="color:#000000;fill:#0cd2a4;fill-opacity:1;fill-rule:nonzero;stroke:none;stroke-width:1;marker:none;visibility:visible;display:inline;overflow:visible;enable-background:accumulate"
       id="path3021-2-8-0"
       sodipodi:cx="405.71606"
       sodipodi:cy="394.36942"
       sodipodi:rx="20.332012"
       sodipodi:ry="20.332012"
       d="m 426.04808,394.36942 a 20.332012,20.332012 0 1 1 -40.66403,0 20.332012,20.332012 0 1 1 40.66403,0 z"
       transform="matrix(0.83333333,0,0,0.83333333,-146.23419,332.08266)" />
    <path
       style="color:#000000;fill:#0cbf95;fill-opacity:1;stroke:none;stroke-width:1px;marker:none;visibility:visible;display:inline;overflow:visible;enable-background:accumulate"
       d="m 176.09424,667.83407 c 8.16619,5.12518 18.30353,8.54198 23.65379,4.55572 5.35027,-3.98626 9.29255,-14.23664 8.16619,-17.93816 -1.12637,-3.70152 1.40796,0.8542 1.12636,7.11832 -0.28158,6.26412 -3.09751,14.8061 -12.10847,15.94502 -9.01097,1.13893 -16.89557,1.42367 -20.83787,-9.6809 z"
       id="path3023-6-6-5"
       inkscape:connector-curvature="0" />
    <path
       sodipodi:type="arc"
       style="color:#000000;fill:#0cd2a4;fill-opacity:1;fill-rule:nonzero;stroke:none;stroke-width:1;marker:none;visibility:visible;display:inline;overflow:visible;enable-background:accumulate"
       id="path3021-6-4-8-3"
       sodipodi:cx="405.71606"
       sodipodi:cy="394.36942"
       sodipodi:rx="20.332012"
       sodipodi:ry="20.332012"
       d="m 426.04808,394.36942 a 20.332012,20.332012 0 1 1 -40.66403,0 20.332012,20.332012 0 1 1 40.66403,0 z"
       transform="matrix(0.48775483,0,0,0.48775483,-22.5839,454.01523)" />
    <path
       style="color:#000000;fill:#0cbf95;fill-opacity:1;stroke:none;stroke-width:1px;marker:none;visibility:visible;display:inline;overflow:visible;enable-background:accumulate"
       d="m 166.0768,650.53248 c 4.77972,2.9998 10.71317,4.99967 13.8447,2.66648 3.13154,-2.33317 5.43898,-8.33278 4.77972,-10.49931 -0.65927,-2.16651 0.82409,0.49997 0.65926,4.1664 -0.16481,3.66643 -1.81298,8.6661 -7.08716,9.33271 -5.27417,0.66663 -9.88907,0.83329 -12.19652,-5.66628 z"
       id="path3023-7-6-3-0"
       inkscape:connector-curvature="0" />
    <path
       sodipodi:type="arc"
       style="color:#000000;fill:#099171;fill-opacity:1;fill-rule:nonzero;stroke:none;stroke-width:1;marker:none;visibility:visible;display:inline;overflow:visible;enable-background:accumulate"
       id="path4417-8-5-9-8"
       sodipodi:cx="1800.9596"
       sodipodi:cy="413.28513"
       sodipodi:rx="25.509342"
       sodipodi:ry="25.509342"
       d="m 1826.4689,413.28513 a 25.509342,25.509342 0 1 1 -51.0186,0 25.509342,25.509342 0 1 1 51.0186,0 z"
       transform="matrix(0.29962297,0,0,0.29962297,-320.11666,612.23503)" />
    <path
       style="color:#000000;fill:#0cbf95;fill-opacity:1;stroke:none;stroke-width:1px;marker:none;visibility:visible;display:inline;overflow:visible;enable-background:accumulate"
       d="m 188.24724,793.70754 c 11.80909,8.61965 29.74312,11.65363 54.66185,11.79112 30.06568,0.16589 55.8805,-0.99024 66.43873,-20.69402 12.27233,-22.90265 11.08413,-33.64784 10.89159,-45.20012 0,0 -0.54458,3.26747 -4.08435,14.43136 -3.53977,11.16388 -8.98005,34.3526 -28.04034,41.15985 -33.41645,8.17143 -58.00332,9.01994 -99.86748,-1.48819 z"
       id="path4187-6"
       inkscape:connector-curvature="0"
       sodipodi:nodetypes="csscscc" />
    <path
       sodipodi:type="arc"
       style="color:#000000;fill:#0cd2a4;fill-opacity:1;fill-rule:nonzero;stroke:none;stroke-width:1;marker:none;visibility:visible;display:inline;overflow:visible;enable-background:accumulate"
       id="path3021-6-7"
       sodipodi:cx="405.71606"
       sodipodi:cy="394.36942"
       sodipodi:rx="20.332012"
       sodipodi:ry="20.332012"
       d="m 426.04808,394.36942 a 20.332012,20.332012 0 1 1 -40.66403,0 20.332012,20.332012 0 1 1 40.66403,0 z"
       transform="matrix(0.48775483,0,0,0.48775483,130.98758,616.27487)" />
    <path
       style="color:#000000;fill:#0cbf95;fill-opacity:1;stroke:none;stroke-width:1px;marker:none;visibility:visible;display:inline;overflow:visible;enable-background:accumulate"
       d="m 319.64828,812.79212 c 4.77972,2.9998 10.71317,4.99967 13.8447,2.66648 3.13154,-2.33317 5.43899,-8.33278 4.77972,-10.4993 -0.65927,-2.16652 0.82409,0.49996 0.65927,4.16639 -0.16481,3.66643 -1.81299,8.6661 -7.08716,9.33271 -5.27418,0.66663 -9.88908,0.83329 -12.19653,-5.66628 z"
       id="path3023-7-3"
       inkscape:connector-curvature="0" />
    <path
       style="color:#000000;fill:#0cbf95;fill-opacity:1;stroke:none;stroke-width:1px;marker:none;visibility:visible;display:inline;overflow:visible;enable-background:accumulate"
       d="m 316.59581,729.64386 c 8.16619,5.12519 18.30353,8.54198 23.65379,4.55572 5.35027,-3.98626 9.29255,-14.23663 8.16618,-17.93816 -1.12636,-3.70152 1.40797,0.8542 1.12637,7.11832 -0.28158,6.26412 -3.09751,14.8061 -12.10848,15.94502 -9.01096,1.13894 -16.89556,1.42367 -20.83786,-9.6809 z"
       id="path3023-6-1"
       inkscape:connector-curvature="0" />
    <path
       sodipodi:type="arc"
       style="color:#000000;fill:#0cd2a4;fill-opacity:1;fill-rule:nonzero;stroke:none;stroke-width:1;marker:none;visibility:visible;display:inline;overflow:visible;enable-background:accumulate"
       id="path3021-6-4-4"
       sodipodi:cx="405.71606"
       sodipodi:cy="394.36942"
       sodipodi:rx="20.332012"
       sodipodi:ry="20.332012"
       d="m 426.04808,394.36942 a 20.332012,20.332012 0 1 1 -40.66403,0 20.332012,20.332012 0 1 1 40.66403,0 z"
       transform="matrix(0.48775483,0,0,0.48775483,153.31535,522.63228)" />
    <path
       style="color:#000000;fill:#0cbf95;fill-opacity:1;stroke:none;stroke-width:1px;marker:none;visibility:visible;display:inline;overflow:visible;enable-background:accumulate"
       d="m 341.97605,719.14953 c 4.77972,2.9998 10.71317,4.99967 13.8447,2.66648 3.13154,-2.33317 5.43898,-8.33278 4.77972,-10.49931 -0.65927,-2.16651 0.82409,0.49997 0.65926,4.1664 -0.16481,3.66643 -1.81298,8.6661 -7.08716,9.33271 -5.27417,0.66663 -9.88907,0.83329 -12.19652,-5.66628 z"
       id="path3023-7-6-7"
       inkscape:connector-curvature="0" />
    <path
       sodipodi:nodetypes="csscssssssscc"
       style="color:#000000;fill:#0cbf95;fill-opacity:1;stroke:none;stroke-width:1px;marker:none;visibility:visible;display:inline;overflow:visible;enable-background:accumulate"
       d="m 227.38857,893.72057 c 4.08435,1.08916 13.88679,-5.99037 17.69885,-5.44579 3.81205,0.54457 9.25785,5.44579 13.61449,6.53495 4.35663,1.08917 7.07953,-5.71808 7.07953,-5.71808 0,0 3.26748,-4.35664 2.7229,-7.89641 -0.54458,-3.53977 -1.09742,-18.76596 -1.09742,-20.12741 0,-1.36145 0.82513,15.77077 -2.17005,21.21657 -2.9952,5.4458 -1.90604,7.8964 -5.17351,8.1687 -3.26749,0.27229 -5.99038,-5.17351 -10.07473,-5.17351 -4.08435,0 -11.16388,1.36145 -12.79762,2.17831 -1.63374,0.81688 -6.53496,3.26749 -8.16869,3.26749 -1.63375,0 -6.26267,-1.08916 -6.26267,-1.08916 z"
       id="path4189-8"
       inkscape:connector-curvature="0" />
    <path
       style="color:#000000;fill:#0cd2a4;fill-opacity:1;stroke:none;stroke-width:1px;marker:none;visibility:visible;display:inline;overflow:visible;enable-background:accumulate"
       d="m 221.1259,821.01919 c -8.16869,16.33739 -14.43136,26.68441 -14.43136,31.31333 0,4.62893 5.17351,1.36145 5.17351,-0.54458 0,-1.90603 9.25785,-30.76875 9.25785,-30.76875 z"
       id="path4191-4"
       inkscape:connector-curvature="0" />
    <path
       style="color:#000000;fill:#0cd2a4;fill-opacity:1;stroke:none;stroke-width:1px;marker:none;visibility:visible;display:inline;overflow:visible;enable-background:accumulate"
       d="m 265.10072,819.42851 c 8.16869,16.33739 14.43135,26.68441 14.43135,31.31334 0,4.62892 -5.1735,1.36145 -5.1735,-0.54459 0,-1.90602 -9.25785,-30.76875 -9.25785,-30.76875 z"
       id="path4191-5-5"
       inkscape:connector-curvature="0" />
  </g>
</svg>
